<svg xmlns="http://www.w3.org/2000/svg" xmlns:xlink="http://www.w3.org/1999/xlink" width="2000" zoomAndPan="magnify" viewBox="0 0 1500 1499.999933" height="2000" preserveAspectRatio="xMidYMid meet" version="1.0"><defs><g/><clipPath id="99da2531d2"><path d="M 389.445312 350.613281 L 1110.195312 350.613281 L 1110.195312 933 L 389.445312 933 Z M 389.445312 350.613281 " clip-rule="nonzero"/></clipPath><clipPath id="f1f68980c7"><path d="M 544 963 L 956 963 L 956 1097.613281 L 544 1097.613281 Z M 544 963 " clip-rule="nonzero"/></clipPath></defs><g clip-path="url(#99da2531d2)"><path fill="#1800ad" d="M 1086.273438 932.367188 L 413.722656 932.367188 C 412.925781 932.363281 412.136719 932.324219 411.34375 932.246094 C 410.554688 932.167969 409.769531 932.050781 408.992188 931.894531 C 408.210938 931.742188 407.445312 931.546875 406.683594 931.316406 C 405.925781 931.085938 405.175781 930.816406 404.445312 930.511719 C 403.710938 930.210938 402.992188 929.871094 402.292969 929.496094 C 401.59375 929.121094 400.914062 928.714844 400.253906 928.273438 C 399.59375 927.832031 398.957031 927.359375 398.339844 926.855469 C 397.726562 926.351562 397.140625 925.816406 396.578125 925.257812 C 396.015625 924.695312 395.484375 924.109375 394.980469 923.492188 C 394.476562 922.878906 394.003906 922.242188 393.5625 921.582031 C 393.121094 920.921875 392.710938 920.242188 392.335938 919.542969 C 391.960938 918.84375 391.625 918.125 391.320312 917.394531 C 391.015625 916.660156 390.746094 915.914062 390.515625 915.152344 C 390.285156 914.394531 390.089844 913.625 389.933594 912.847656 C 389.777344 912.066406 389.660156 911.28125 389.582031 910.492188 C 389.503906 909.703125 389.464844 908.910156 389.464844 908.117188 L 389.464844 375.164062 C 389.464844 374.371094 389.503906 373.578125 389.582031 372.785156 C 389.660156 371.996094 389.777344 371.210938 389.933594 370.433594 C 390.089844 369.65625 390.285156 368.886719 390.515625 368.125 C 390.746094 367.367188 391.015625 366.621094 391.320312 365.886719 C 391.625 365.152344 391.960938 364.4375 392.335938 363.734375 C 392.710938 363.035156 393.121094 362.355469 393.5625 361.695312 C 394.003906 361.035156 394.476562 360.398438 394.980469 359.785156 C 395.484375 359.171875 396.015625 358.585938 396.578125 358.023438 C 397.140625 357.460938 397.726562 356.929688 398.339844 356.425781 C 398.957031 355.921875 399.59375 355.449219 400.253906 355.007812 C 400.914062 354.566406 401.59375 354.160156 402.292969 353.785156 C 402.992188 353.410156 403.710938 353.070312 404.445312 352.765625 C 405.175781 352.460938 405.925781 352.195312 406.683594 351.964844 C 407.445312 351.730469 408.210938 351.539062 408.992188 351.382812 C 409.769531 351.226562 410.554688 351.109375 411.34375 351.03125 C 412.136719 350.953125 412.925781 350.914062 413.722656 350.914062 L 1086.273438 350.914062 C 1087.066406 350.914062 1087.859375 350.953125 1088.648438 351.03125 C 1089.441406 351.109375 1090.226562 351.226562 1091.003906 351.382812 C 1091.78125 351.539062 1092.550781 351.730469 1093.3125 351.964844 C 1094.070312 352.195312 1094.816406 352.460938 1095.550781 352.765625 C 1096.285156 353.070312 1097 353.410156 1097.703125 353.785156 C 1098.402344 354.160156 1099.082031 354.566406 1099.742188 355.007812 C 1100.402344 355.449219 1101.039062 355.921875 1101.652344 356.425781 C 1102.265625 356.929688 1102.855469 357.460938 1103.417969 358.023438 C 1103.976562 358.585938 1104.511719 359.171875 1105.015625 359.785156 C 1105.519531 360.398438 1105.992188 361.035156 1106.433594 361.695312 C 1106.875 362.355469 1107.28125 363.035156 1107.65625 363.734375 C 1108.03125 364.4375 1108.371094 365.152344 1108.675781 365.886719 C 1108.980469 366.621094 1109.25 367.367188 1109.480469 368.125 C 1109.710938 368.886719 1109.902344 369.65625 1110.058594 370.433594 C 1110.214844 371.210938 1110.332031 371.996094 1110.410156 372.785156 C 1110.492188 373.578125 1110.53125 374.371094 1110.53125 375.164062 L 1110.53125 908.117188 C 1110.53125 908.910156 1110.492188 909.703125 1110.410156 910.492188 C 1110.332031 911.28125 1110.214844 912.066406 1110.058594 912.847656 C 1109.902344 913.625 1109.710938 914.394531 1109.480469 915.152344 C 1109.25 915.914062 1108.980469 916.660156 1108.675781 917.394531 C 1108.371094 918.125 1108.03125 918.84375 1107.65625 919.542969 C 1107.28125 920.242188 1106.875 920.921875 1106.433594 921.582031 C 1105.992188 922.242188 1105.519531 922.878906 1105.015625 923.492188 C 1104.511719 924.109375 1103.976562 924.695312 1103.417969 925.257812 C 1102.855469 925.816406 1102.265625 926.351562 1101.652344 926.855469 C 1101.039062 927.359375 1100.402344 927.832031 1099.742188 928.273438 C 1099.082031 928.714844 1098.402344 929.121094 1097.703125 929.496094 C 1097 929.871094 1096.285156 930.210938 1095.550781 930.511719 C 1094.816406 930.816406 1094.070312 931.085938 1093.3125 931.316406 C 1092.550781 931.546875 1091.78125 931.742188 1091.003906 931.894531 C 1090.226562 932.050781 1089.441406 932.167969 1088.648438 932.246094 C 1087.859375 932.324219 1087.066406 932.363281 1086.273438 932.367188 Z M 416.011719 905.816406 L 1083.984375 905.816406 L 1083.984375 377.460938 L 416.011719 377.460938 Z M 416.011719 905.816406 " fill-opacity="1" fill-rule="nonzero"/></g><path fill="#1800ad" d="M 809.164062 1026.511719 L 690.828125 1026.511719 C 690.035156 1026.511719 689.242188 1026.472656 688.453125 1026.394531 C 687.664062 1026.316406 686.878906 1026.199219 686.101562 1026.042969 C 685.320312 1025.890625 684.550781 1025.695312 683.792969 1025.464844 C 683.03125 1025.234375 682.285156 1024.96875 681.550781 1024.664062 C 680.820312 1024.363281 680.101562 1024.023438 679.402344 1023.648438 C 678.703125 1023.273438 678.019531 1022.867188 677.359375 1022.425781 C 676.699219 1021.988281 676.0625 1021.515625 675.449219 1021.011719 C 674.835938 1020.507812 674.246094 1019.976562 673.683594 1019.414062 C 673.121094 1018.855469 672.589844 1018.269531 672.085938 1017.65625 C 671.582031 1017.042969 671.109375 1016.40625 670.664062 1015.746094 C 670.222656 1015.085938 669.816406 1014.40625 669.441406 1013.707031 C 669.0625 1013.007812 668.722656 1012.292969 668.417969 1011.558594 C 668.113281 1010.824219 667.84375 1010.078125 667.613281 1009.320312 C 667.382812 1008.5625 667.1875 1007.792969 667.03125 1007.015625 C 666.875 1006.234375 666.757812 1005.453125 666.675781 1004.660156 C 666.597656 1003.871094 666.554688 1003.078125 666.554688 1002.285156 L 666.554688 919.09375 C 666.554688 918.21875 666.640625 917.355469 666.808594 916.503906 C 666.980469 915.648438 667.230469 914.816406 667.566406 914.011719 C 667.898438 913.207031 668.308594 912.441406 668.792969 911.71875 C 669.277344 910.992188 669.828125 910.324219 670.441406 909.707031 C 671.058594 909.089844 671.730469 908.539062 672.453125 908.054688 C 673.179688 907.570312 673.945312 907.164062 674.75 906.828125 C 675.554688 906.496094 676.382812 906.242188 677.238281 906.074219 C 678.09375 905.902344 678.957031 905.816406 679.828125 905.816406 C 680.699219 905.816406 681.5625 905.902344 682.417969 906.074219 C 683.273438 906.242188 684.101562 906.496094 684.90625 906.828125 C 685.714844 907.164062 686.476562 907.570312 687.203125 908.054688 C 687.929688 908.539062 688.597656 909.089844 689.214844 909.707031 C 689.832031 910.324219 690.382812 910.992188 690.867188 911.71875 C 691.347656 912.441406 691.757812 913.207031 692.09375 914.011719 C 692.425781 914.816406 692.675781 915.648438 692.847656 916.503906 C 693.015625 917.355469 693.101562 918.21875 693.101562 919.09375 L 693.101562 999.964844 L 806.890625 999.964844 L 806.890625 919.09375 C 806.890625 918.21875 806.976562 917.355469 807.148438 916.503906 C 807.316406 915.648438 807.570312 914.816406 807.902344 914.011719 C 808.238281 913.207031 808.644531 912.441406 809.128906 911.71875 C 809.613281 910.992188 810.164062 910.324219 810.78125 909.707031 C 811.398438 909.089844 812.066406 908.539062 812.792969 908.054688 C 813.515625 907.570312 814.28125 907.164062 815.085938 906.828125 C 815.890625 906.496094 816.722656 906.242188 817.578125 906.074219 C 818.429688 905.902344 819.292969 905.816406 820.167969 905.816406 C 821.039062 905.816406 821.902344 905.902344 822.757812 906.074219 C 823.609375 906.242188 824.441406 906.496094 825.246094 906.828125 C 826.050781 907.164062 826.816406 907.570312 827.539062 908.054688 C 828.265625 908.539062 828.9375 909.089844 829.550781 909.707031 C 830.167969 910.324219 830.71875 910.992188 831.203125 911.71875 C 831.6875 912.441406 832.097656 913.207031 832.429688 914.011719 C 832.761719 914.816406 833.015625 915.648438 833.183594 916.503906 C 833.355469 917.355469 833.441406 918.21875 833.441406 919.09375 L 833.441406 1002.285156 C 833.4375 1003.078125 833.398438 1003.871094 833.316406 1004.660156 C 833.238281 1005.453125 833.121094 1006.234375 832.964844 1007.015625 C 832.808594 1007.792969 832.613281 1008.5625 832.382812 1009.320312 C 832.148438 1010.078125 831.882812 1010.824219 831.574219 1011.558594 C 831.269531 1012.292969 830.929688 1013.007812 830.554688 1013.707031 C 830.179688 1014.40625 829.769531 1015.085938 829.328125 1015.746094 C 828.886719 1016.40625 828.414062 1017.042969 827.910156 1017.65625 C 827.40625 1018.269531 826.871094 1018.855469 826.308594 1019.417969 C 825.75 1019.976562 825.160156 1020.507812 824.546875 1021.011719 C 823.933594 1021.515625 823.292969 1021.988281 822.632812 1022.425781 C 821.972656 1022.867188 821.292969 1023.273438 820.59375 1023.648438 C 819.894531 1024.023438 819.175781 1024.363281 818.441406 1024.664062 C 817.707031 1024.96875 816.960938 1025.234375 816.203125 1025.464844 C 815.441406 1025.695312 814.671875 1025.890625 813.894531 1026.042969 C 813.117188 1026.199219 812.332031 1026.316406 811.542969 1026.394531 C 810.75 1026.472656 809.960938 1026.511719 809.164062 1026.511719 Z M 809.164062 1026.511719 " fill-opacity="1" fill-rule="nonzero"/><g clip-path="url(#f1f68980c7)"><path fill="#1800ad" d="M 749.996094 1097.566406 C 697.339844 1097.566406 647.664062 1091.59375 610.125 1080.75 C 591.042969 1075.25 575.910156 1068.703125 565.042969 1061.28125 C 547.746094 1049.449219 544.121094 1037.003906 544.121094 1028.710938 C 544.121094 1011.289062 558.421875 996.453125 586.636719 984.738281 C 609.726562 975.140625 641.441406 967.863281 678.34375 963.699219 C 679.210938 963.601562 680.078125 963.589844 680.945312 963.664062 C 681.8125 963.738281 682.667969 963.894531 683.503906 964.136719 C 684.34375 964.375 685.148438 964.695312 685.921875 965.097656 C 686.699219 965.496094 687.425781 965.96875 688.105469 966.511719 C 688.789062 967.054688 689.410156 967.660156 689.972656 968.324219 C 690.535156 968.992188 691.027344 969.703125 691.449219 970.46875 C 691.871094 971.230469 692.214844 972.027344 692.480469 972.855469 C 692.746094 973.6875 692.925781 974.535156 693.023438 975.402344 C 693.121094 976.269531 693.132812 977.136719 693.0625 978.003906 C 692.988281 978.871094 692.832031 979.726562 692.589844 980.5625 C 692.347656 981.402344 692.027344 982.207031 691.628906 982.980469 C 691.226562 983.757812 690.757812 984.484375 690.214844 985.164062 C 689.667969 985.847656 689.066406 986.46875 688.398438 987.03125 C 687.734375 987.59375 687.019531 988.085938 686.257812 988.507812 C 685.492188 988.929688 684.695312 989.273438 683.867188 989.539062 C 683.035156 989.804688 682.1875 989.984375 681.320312 990.082031 C 647.359375 993.914062 617.351562 1000.726562 596.824219 1009.253906 C 576.136719 1017.847656 570.667969 1025.746094 570.667969 1028.71875 C 570.667969 1032.351562 579.082031 1044.207031 617.484375 1055.265625 C 652.699219 1065.4375 699.765625 1071.027344 749.996094 1071.027344 C 800.230469 1071.027344 847.292969 1065.429688 882.511719 1055.265625 C 920.914062 1044.171875 929.328125 1032.316406 929.328125 1028.71875 C 929.328125 1025.746094 923.859375 1017.847656 903.167969 1009.253906 C 882.644531 1000.726562 852.636719 993.914062 818.671875 990.082031 C 817.808594 989.984375 816.957031 989.804688 816.128906 989.539062 C 815.296875 989.273438 814.5 988.929688 813.738281 988.507812 C 812.976562 988.085938 812.261719 987.59375 811.59375 987.03125 C 810.929688 986.46875 810.324219 985.847656 809.78125 985.164062 C 809.238281 984.484375 808.765625 983.757812 808.367188 982.980469 C 807.96875 982.207031 807.644531 981.402344 807.40625 980.5625 C 807.164062 979.726562 807.007812 978.871094 806.933594 978.003906 C 806.859375 977.136719 806.875 976.269531 806.972656 975.402344 C 807.070312 974.535156 807.25 973.6875 807.515625 972.855469 C 807.78125 972.027344 808.125 971.230469 808.546875 970.46875 C 808.96875 969.703125 809.460938 968.992188 810.023438 968.324219 C 810.585938 967.660156 811.207031 967.054688 811.886719 966.511719 C 812.570312 965.96875 813.296875 965.496094 814.070312 965.097656 C 814.847656 964.695312 815.652344 964.375 816.488281 964.132812 C 817.328125 963.894531 818.179688 963.738281 819.050781 963.664062 C 819.917969 963.589844 820.785156 963.601562 821.652344 963.699219 C 858.550781 967.847656 890.269531 975.140625 913.355469 984.738281 C 941.5625 996.460938 955.875 1011.289062 955.875 1028.710938 C 955.875 1037.070312 952.25 1049.515625 934.953125 1061.320312 C 924.082031 1068.789062 908.917969 1075.292969 889.871094 1080.792969 C 852.332031 1091.59375 802.652344 1097.566406 749.996094 1097.566406 Z M 749.996094 1097.566406 " fill-opacity="1" fill-rule="nonzero"/></g><path fill="#1800ad" d="M 1037.109375 813.964844 L 462.882812 813.964844 C 462.011719 813.964844 461.148438 813.878906 460.292969 813.707031 C 459.441406 813.539062 458.609375 813.285156 457.804688 812.953125 C 457 812.621094 456.234375 812.210938 455.507812 811.726562 C 454.785156 811.242188 454.113281 810.691406 453.5 810.074219 C 452.882812 809.460938 452.332031 808.789062 451.847656 808.0625 C 451.363281 807.339844 450.953125 806.574219 450.621094 805.769531 C 450.289062 804.964844 450.035156 804.132812 449.867188 803.277344 C 449.695312 802.425781 449.609375 801.5625 449.609375 800.691406 L 449.609375 421.25 C 449.609375 420.375 449.695312 419.511719 449.867188 418.660156 C 450.035156 417.804688 450.289062 416.972656 450.621094 416.167969 C 450.953125 415.363281 451.363281 414.597656 451.847656 413.875 C 452.332031 413.148438 452.882812 412.480469 453.5 411.863281 C 454.113281 411.246094 454.785156 410.695312 455.507812 410.210938 C 456.234375 409.726562 457 409.320312 457.804688 408.984375 C 458.609375 408.652344 459.441406 408.398438 460.292969 408.230469 C 461.148438 408.058594 462.011719 407.972656 462.882812 407.972656 L 1037.109375 407.972656 C 1037.980469 407.972656 1038.84375 408.058594 1039.699219 408.230469 C 1040.554688 408.398438 1041.386719 408.652344 1042.191406 408.984375 C 1042.996094 409.320312 1043.761719 409.726562 1044.484375 410.210938 C 1045.210938 410.695312 1045.878906 411.246094 1046.496094 411.863281 C 1047.113281 412.480469 1047.664062 413.148438 1048.148438 413.875 C 1048.632812 414.597656 1049.039062 415.363281 1049.375 416.167969 C 1049.707031 416.972656 1049.960938 417.804688 1050.128906 418.660156 C 1050.300781 419.511719 1050.382812 420.375 1050.382812 421.25 L 1050.382812 800.691406 C 1050.382812 801.5625 1050.300781 802.425781 1050.128906 803.277344 C 1049.960938 804.132812 1049.707031 804.964844 1049.375 805.769531 C 1049.039062 806.574219 1048.632812 807.339844 1048.148438 808.0625 C 1047.664062 808.789062 1047.113281 809.460938 1046.496094 810.074219 C 1045.878906 810.691406 1045.210938 811.242188 1044.484375 811.726562 C 1043.761719 812.210938 1042.996094 812.621094 1042.191406 812.953125 C 1041.386719 813.285156 1040.554688 813.539062 1039.699219 813.707031 C 1038.84375 813.878906 1037.980469 813.964844 1037.109375 813.964844 Z M 476.15625 787.414062 L 1023.835938 787.414062 L 1023.835938 434.523438 L 476.15625 434.523438 Z M 476.15625 787.414062 " fill-opacity="1" fill-rule="nonzero"/><path fill="#1800ad" d="M 749.996094 896.179688 C 748.808594 896.175781 747.625 896.113281 746.441406 895.996094 C 745.261719 895.875 744.085938 895.699219 742.921875 895.464844 C 741.757812 895.230469 740.609375 894.941406 739.472656 894.59375 C 738.335938 894.246094 737.21875 893.84375 736.125 893.386719 C 735.027344 892.929688 733.957031 892.421875 732.910156 891.859375 C 731.863281 891.296875 730.847656 890.683594 729.859375 890.023438 C 728.875 889.359375 727.921875 888.652344 727.003906 887.894531 C 726.089844 887.140625 725.210938 886.34375 724.371094 885.5 C 723.535156 884.660156 722.738281 883.777344 721.988281 882.859375 C 721.234375 881.941406 720.53125 880.984375 719.871094 879.996094 C 719.214844 879.007812 718.605469 877.988281 718.046875 876.941406 C 717.488281 875.890625 716.984375 874.816406 716.53125 873.71875 C 716.078125 872.621094 715.679688 871.503906 715.339844 870.367188 C 714.996094 869.230469 714.707031 868.078125 714.480469 866.914062 C 714.25 865.746094 714.078125 864.574219 713.960938 863.390625 C 713.847656 862.207031 713.792969 861.023438 713.792969 859.835938 C 713.792969 858.648438 713.855469 857.460938 713.972656 856.28125 C 714.089844 855.097656 714.265625 853.925781 714.5 852.761719 C 714.734375 851.597656 715.023438 850.445312 715.371094 849.308594 C 715.714844 848.171875 716.117188 847.054688 716.574219 845.960938 C 717.03125 844.863281 717.539062 843.789062 718.101562 842.742188 C 718.660156 841.695312 719.273438 840.679688 719.933594 839.691406 C 720.59375 838.707031 721.300781 837.753906 722.058594 836.835938 C 722.8125 835.917969 723.609375 835.042969 724.449219 834.203125 C 725.292969 833.363281 726.171875 832.566406 727.089844 831.816406 C 728.011719 831.0625 728.964844 830.355469 729.953125 829.699219 C 730.941406 829.039062 731.957031 828.429688 733.007812 827.871094 C 734.054688 827.3125 735.128906 826.804688 736.226562 826.351562 C 737.324219 825.898438 738.441406 825.5 739.578125 825.15625 C 740.714844 824.8125 741.867188 824.523438 743.03125 824.292969 C 744.195312 824.0625 745.371094 823.890625 746.554688 823.773438 C 747.734375 823.660156 748.921875 823.601562 750.109375 823.601562 C 751.296875 823.605469 752.480469 823.664062 753.664062 823.78125 C 754.84375 823.898438 756.019531 824.074219 757.183594 824.304688 C 758.347656 824.539062 759.5 824.828125 760.636719 825.171875 C 761.773438 825.519531 762.890625 825.917969 763.984375 826.375 C 765.082031 826.828125 766.15625 827.335938 767.203125 827.898438 C 768.25 828.457031 769.269531 829.066406 770.253906 829.730469 C 771.242188 830.390625 772.195312 831.097656 773.113281 831.851562 C 774.03125 832.605469 774.910156 833.402344 775.75 834.242188 C 776.589844 835.082031 777.386719 835.960938 778.136719 836.878906 C 778.890625 837.796875 779.597656 838.75 780.257812 839.738281 C 780.917969 840.726562 781.527344 841.746094 782.085938 842.792969 C 782.648438 843.839844 783.152344 844.914062 783.609375 846.011719 C 784.0625 847.109375 784.460938 848.226562 784.808594 849.363281 C 785.152344 850.5 785.441406 851.648438 785.671875 852.816406 C 785.902344 853.980469 786.078125 855.152344 786.191406 856.335938 C 786.308594 857.519531 786.367188 858.703125 786.367188 859.890625 C 786.363281 861.082031 786.304688 862.265625 786.183594 863.449219 C 786.066406 864.632812 785.890625 865.808594 785.65625 866.972656 C 785.421875 868.140625 785.128906 869.292969 784.78125 870.429688 C 784.433594 871.566406 784.03125 872.683594 783.574219 873.785156 C 783.117188 874.882812 782.609375 875.953125 782.046875 877.003906 C 781.484375 878.050781 780.871094 879.070312 780.210938 880.058594 C 779.546875 881.046875 778.839844 882 778.082031 882.917969 C 777.328125 883.835938 776.527344 884.714844 775.6875 885.554688 C 774.84375 886.394531 773.960938 887.191406 773.042969 887.945312 C 772.121094 888.699219 771.167969 889.40625 770.179688 890.066406 C 769.1875 890.726562 768.167969 891.335938 767.121094 891.894531 C 766.070312 892.457031 764.996094 892.964844 763.898438 893.417969 C 762.796875 893.871094 761.679688 894.273438 760.539062 894.617188 C 759.402344 894.960938 758.25 895.25 757.082031 895.480469 C 755.917969 895.714844 754.742188 895.886719 753.558594 896.003906 C 752.375 896.121094 751.1875 896.179688 749.996094 896.179688 Z M 749.996094 850.160156 C 749.359375 850.164062 748.726562 850.234375 748.101562 850.363281 C 747.476562 850.492188 746.871094 850.679688 746.28125 850.929688 C 745.695312 851.179688 745.136719 851.484375 744.609375 851.839844 C 744.082031 852.199219 743.59375 852.605469 743.144531 853.0625 C 742.695312 853.515625 742.296875 854.011719 741.945312 854.542969 C 741.59375 855.078125 741.296875 855.640625 741.058594 856.230469 C 740.816406 856.824219 740.636719 857.433594 740.515625 858.058594 C 740.394531 858.6875 740.335938 859.316406 740.339844 859.957031 C 740.34375 860.59375 740.410156 861.226562 740.539062 861.851562 C 740.667969 862.476562 740.855469 863.085938 741.101562 863.671875 C 741.347656 864.261719 741.652344 864.820312 742.007812 865.351562 C 742.367188 865.878906 742.773438 866.367188 743.226562 866.816406 C 743.679688 867.265625 744.171875 867.667969 744.703125 868.019531 C 745.238281 868.371094 745.796875 868.671875 746.390625 868.910156 C 746.980469 869.152344 747.589844 869.335938 748.214844 869.457031 C 748.84375 869.582031 749.476562 869.640625 750.113281 869.636719 C 750.75 869.636719 751.382812 869.570312 752.011719 869.445312 C 752.636719 869.320312 753.242188 869.132812 753.832031 868.886719 C 754.421875 868.640625 754.980469 868.339844 755.511719 867.984375 C 756.042969 867.628906 756.53125 867.222656 756.980469 866.769531 C 757.433594 866.320312 757.835938 865.828125 758.1875 865.296875 C 758.542969 864.765625 758.839844 864.203125 759.085938 863.613281 C 759.328125 863.023438 759.511719 862.414062 759.636719 861.789062 C 759.757812 861.160156 759.820312 860.53125 759.820312 859.890625 C 759.816406 859.25 759.75 858.613281 759.621094 857.984375 C 759.492188 857.355469 759.304688 856.746094 759.054688 856.15625 C 758.804688 855.5625 758.503906 855 758.144531 854.46875 C 757.785156 853.9375 757.375 853.445312 756.921875 852.996094 C 756.464844 852.542969 755.96875 852.140625 755.433594 851.785156 C 754.898438 851.429688 754.335938 851.132812 753.742188 850.890625 C 753.148438 850.644531 752.535156 850.464844 751.90625 850.339844 C 751.273438 850.21875 750.640625 850.15625 749.996094 850.160156 Z M 749.996094 850.160156 " fill-opacity="1" fill-rule="nonzero"/><path fill="#1800ad" d="M 661.34375 726.730469 C 597.515625 726.730469 545.582031 674.796875 545.582031 610.964844 C 545.582031 547.132812 597.515625 495.191406 661.34375 495.191406 C 725.175781 495.191406 777.117188 547.125 777.117188 610.964844 C 777.117188 674.804688 725.183594 726.730469 661.34375 726.730469 Z M 661.34375 521.738281 C 659.882812 521.738281 658.425781 521.777344 656.96875 521.847656 C 655.507812 521.917969 654.050781 522.027344 652.597656 522.167969 C 651.144531 522.3125 649.699219 522.492188 648.253906 522.707031 C 646.808594 522.917969 645.371094 523.167969 643.9375 523.453125 C 642.507812 523.738281 641.082031 524.058594 639.664062 524.414062 C 638.25 524.769531 636.84375 525.15625 635.445312 525.582031 C 634.046875 526.003906 632.660156 526.464844 631.285156 526.957031 C 629.910156 527.445312 628.550781 527.972656 627.199219 528.53125 C 625.851562 529.089844 624.515625 529.679688 623.195312 530.304688 C 621.875 530.929688 620.574219 531.585938 619.285156 532.273438 C 617.996094 532.964844 616.726562 533.683594 615.476562 534.433594 C 614.222656 535.183594 612.988281 535.964844 611.773438 536.777344 C 610.5625 537.585938 609.367188 538.429688 608.195312 539.296875 C 607.019531 540.167969 605.871094 541.066406 604.742188 541.992188 C 603.613281 542.917969 602.507812 543.871094 601.425781 544.851562 C 600.34375 545.832031 599.285156 546.839844 598.253906 547.871094 C 597.222656 548.90625 596.214844 549.960938 595.234375 551.042969 C 594.253906 552.125 593.300781 553.230469 592.375 554.359375 C 591.449219 555.488281 590.550781 556.640625 589.679688 557.8125 C 588.808594 558.984375 587.96875 560.179688 587.15625 561.390625 C 586.347656 562.605469 585.566406 563.839844 584.816406 565.09375 C 584.0625 566.34375 583.34375 567.613281 582.65625 568.902344 C 581.96875 570.191406 581.3125 571.496094 580.6875 572.8125 C 580.0625 574.132812 579.472656 575.46875 578.914062 576.816406 C 578.351562 578.167969 577.828125 579.527344 577.335938 580.902344 C 576.84375 582.277344 576.386719 583.664062 575.960938 585.0625 C 575.539062 586.460938 575.148438 587.867188 574.792969 589.28125 C 574.4375 590.699219 574.121094 592.125 573.835938 593.554688 C 573.550781 594.988281 573.300781 596.425781 573.085938 597.871094 C 572.871094 599.316406 572.691406 600.761719 572.550781 602.214844 C 572.40625 603.667969 572.300781 605.125 572.226562 606.585938 C 572.15625 608.042969 572.121094 609.5 572.121094 610.960938 C 572.121094 612.421875 572.15625 613.882812 572.226562 615.339844 C 572.296875 616.796875 572.40625 618.253906 572.550781 619.707031 C 572.691406 621.160156 572.871094 622.609375 573.085938 624.054688 C 573.300781 625.5 573.546875 626.9375 573.832031 628.367188 C 574.117188 629.800781 574.4375 631.226562 574.792969 632.640625 C 575.148438 634.058594 575.535156 635.464844 575.960938 636.863281 C 576.382812 638.257812 576.84375 639.644531 577.335938 641.019531 C 577.824219 642.394531 578.351562 643.757812 578.910156 645.105469 C 579.46875 646.457031 580.058594 647.789062 580.683594 649.109375 C 581.308594 650.429688 581.964844 651.734375 582.652344 653.023438 C 583.34375 654.308594 584.0625 655.578125 584.8125 656.832031 C 585.5625 658.085938 586.34375 659.316406 587.15625 660.53125 C 587.964844 661.746094 588.804688 662.941406 589.675781 664.113281 C 590.546875 665.285156 591.445312 666.4375 592.371094 667.566406 C 593.296875 668.695312 594.25 669.800781 595.230469 670.882812 C 596.210938 671.964844 597.21875 673.019531 598.25 674.054688 C 599.28125 675.085938 600.339844 676.09375 601.421875 677.074219 C 602.503906 678.054688 603.609375 679.007812 604.738281 679.933594 C 605.867188 680.859375 607.015625 681.757812 608.191406 682.628906 C 609.363281 683.5 610.554688 684.339844 611.769531 685.148438 C 612.984375 685.960938 614.21875 686.742188 615.46875 687.492188 C 616.722656 688.242188 617.992188 688.964844 619.28125 689.652344 C 620.566406 690.339844 621.871094 690.996094 623.191406 691.621094 C 624.511719 692.246094 625.847656 692.835938 627.195312 693.394531 C 628.542969 693.953125 629.90625 694.480469 631.28125 694.972656 C 632.65625 695.464844 634.042969 695.921875 635.4375 696.347656 C 636.835938 696.769531 638.242188 697.160156 639.660156 697.515625 C 641.078125 697.871094 642.5 698.191406 643.933594 698.472656 C 645.363281 698.757812 646.804688 699.007812 648.246094 699.222656 C 649.691406 699.4375 651.140625 699.617188 652.59375 699.757812 C 654.046875 699.902344 655.503906 700.011719 656.960938 700.082031 C 658.417969 700.152344 659.878906 700.191406 661.339844 700.191406 C 662.800781 700.191406 664.257812 700.152344 665.71875 700.082031 C 667.175781 700.011719 668.632812 699.902344 670.085938 699.761719 C 671.539062 699.617188 672.988281 699.4375 674.429688 699.226562 C 675.875 699.011719 677.3125 698.761719 678.746094 698.476562 C 680.179688 698.191406 681.601562 697.871094 683.019531 697.515625 C 684.433594 697.164062 685.84375 696.773438 687.238281 696.351562 C 688.636719 695.925781 690.023438 695.46875 691.398438 694.976562 C 692.773438 694.484375 694.136719 693.960938 695.484375 693.398438 C 696.832031 692.839844 698.167969 692.25 699.488281 691.625 C 700.808594 691 702.113281 690.34375 703.398438 689.65625 C 704.6875 688.96875 705.957031 688.25 707.210938 687.5 C 708.460938 686.75 709.695312 685.96875 710.910156 685.15625 C 712.125 684.34375 713.316406 683.503906 714.492188 682.636719 C 715.664062 681.765625 716.816406 680.867188 717.945312 679.941406 C 719.070312 679.015625 720.175781 678.0625 721.257812 677.082031 C 722.339844 676.101562 723.398438 675.09375 724.429688 674.0625 C 725.464844 673.027344 726.472656 671.972656 727.453125 670.890625 C 728.433594 669.808594 729.386719 668.703125 730.3125 667.574219 C 731.238281 666.445312 732.136719 665.292969 733.007812 664.121094 C 733.875 662.949219 734.71875 661.753906 735.527344 660.542969 C 736.339844 659.328125 737.121094 658.09375 737.871094 656.84375 C 738.621094 655.589844 739.34375 654.320312 740.03125 653.03125 C 740.71875 651.742188 741.375 650.441406 742 649.121094 C 742.625 647.800781 743.214844 646.464844 743.773438 645.117188 C 744.335938 643.769531 744.859375 642.40625 745.351562 641.03125 C 745.84375 639.65625 746.300781 638.269531 746.726562 636.871094 C 747.148438 635.476562 747.539062 634.070312 747.894531 632.652344 C 748.25 631.234375 748.570312 629.8125 748.855469 628.378906 C 749.140625 626.949219 749.386719 625.507812 749.601562 624.066406 C 749.816406 622.621094 749.996094 621.171875 750.140625 619.71875 C 750.28125 618.265625 750.390625 616.808594 750.460938 615.351562 C 750.535156 613.894531 750.570312 612.433594 750.570312 610.972656 C 750.566406 609.511719 750.53125 608.054688 750.457031 606.597656 C 750.382812 605.136719 750.277344 603.683594 750.132812 602.230469 C 749.988281 600.777344 749.808594 599.328125 749.589844 597.886719 C 749.375 596.441406 749.125 595.003906 748.839844 593.574219 C 748.554688 592.140625 748.230469 590.71875 747.875 589.300781 C 747.519531 587.886719 747.128906 586.480469 746.707031 585.082031 C 746.28125 583.6875 745.820312 582.300781 745.328125 580.925781 C 744.835938 579.554688 744.3125 578.191406 743.75 576.84375 C 743.191406 575.496094 742.601562 574.160156 741.976562 572.84375 C 741.351562 571.523438 740.695312 570.21875 740.003906 568.933594 C 739.316406 567.644531 738.597656 566.375 737.84375 565.125 C 737.09375 563.871094 736.3125 562.640625 735.503906 561.425781 C 734.691406 560.210938 733.851562 559.019531 732.980469 557.847656 C 732.109375 556.675781 731.210938 555.523438 730.285156 554.394531 C 729.359375 553.269531 728.40625 552.164062 727.425781 551.082031 C 726.445312 550 725.441406 548.941406 724.40625 547.910156 C 723.375 546.878906 722.316406 545.871094 721.238281 544.890625 C 720.15625 543.910156 719.050781 542.957031 717.921875 542.03125 C 716.792969 541.105469 715.644531 540.207031 714.472656 539.335938 C 713.296875 538.46875 712.105469 537.628906 710.890625 536.816406 C 709.679688 536.003906 708.445312 535.222656 707.195312 534.472656 C 705.941406 533.722656 704.671875 533 703.386719 532.3125 C 702.097656 531.625 700.796875 530.96875 699.476562 530.34375 C 698.15625 529.71875 696.824219 529.125 695.472656 528.566406 C 694.125 528.007812 692.765625 527.480469 691.390625 526.988281 C 690.015625 526.496094 688.632812 526.035156 687.234375 525.613281 C 685.835938 525.1875 684.429688 524.796875 683.015625 524.441406 C 681.601562 524.085938 680.175781 523.765625 678.746094 523.480469 C 677.3125 523.191406 675.875 522.941406 674.433594 522.726562 C 672.988281 522.511719 671.539062 522.332031 670.085938 522.1875 C 668.632812 522.042969 667.179688 521.933594 665.722656 521.859375 C 664.261719 521.785156 662.804688 521.75 661.34375 521.746094 Z M 661.34375 521.738281 " fill-opacity="1" fill-rule="nonzero"/><path fill="#1800ad" d="M 894.351562 726.730469 L 816.863281 726.730469 C 815.992188 726.730469 815.128906 726.644531 814.273438 726.472656 C 813.417969 726.304688 812.589844 726.050781 811.785156 725.71875 C 810.980469 725.386719 810.214844 724.976562 809.488281 724.492188 C 808.765625 724.007812 808.09375 723.457031 807.476562 722.839844 C 806.863281 722.226562 806.3125 721.554688 805.828125 720.828125 C 805.34375 720.105469 804.933594 719.339844 804.601562 718.535156 C 804.265625 717.730469 804.015625 716.898438 803.84375 716.046875 C 803.675781 715.191406 803.589844 714.328125 803.589844 713.457031 C 803.589844 712.582031 803.675781 711.71875 803.84375 710.867188 C 804.015625 710.011719 804.265625 709.179688 804.601562 708.375 C 804.933594 707.570312 805.34375 706.804688 805.828125 706.082031 C 806.3125 705.355469 806.863281 704.6875 807.476562 704.070312 C 808.09375 703.453125 808.765625 702.902344 809.488281 702.417969 C 810.214844 701.933594 810.980469 701.527344 811.785156 701.191406 C 812.589844 700.859375 813.417969 700.605469 814.273438 700.4375 C 815.128906 700.265625 815.992188 700.179688 816.863281 700.179688 L 894.351562 700.179688 C 895.445312 700.179688 896.542969 700.128906 897.632812 700.019531 C 898.722656 699.914062 899.808594 699.753906 900.882812 699.539062 C 901.957031 699.324219 903.019531 699.058594 904.070312 698.738281 C 905.121094 698.421875 906.152344 698.050781 907.164062 697.632812 C 908.175781 697.214844 909.167969 696.746094 910.132812 696.226562 C 911.101562 695.710938 912.039062 695.148438 912.953125 694.539062 C 913.863281 693.929688 914.746094 693.277344 915.59375 692.582031 C 916.441406 691.886719 917.25 691.148438 918.027344 690.375 C 918.800781 689.597656 919.539062 688.789062 920.234375 687.941406 C 920.929688 687.09375 921.582031 686.210938 922.191406 685.300781 C 922.800781 684.390625 923.363281 683.449219 923.878906 682.480469 C 924.398438 681.515625 924.867188 680.523438 925.285156 679.511719 C 925.703125 678.5 926.074219 677.46875 926.390625 676.417969 C 926.710938 675.367188 926.976562 674.304688 927.191406 673.230469 C 927.40625 672.15625 927.566406 671.070312 927.671875 669.980469 C 927.78125 668.890625 927.832031 667.792969 927.832031 666.699219 C 927.832031 665.601562 927.78125 664.507812 927.671875 663.417969 C 927.566406 662.324219 927.40625 661.242188 927.191406 660.164062 C 926.976562 659.089844 926.710938 658.027344 926.390625 656.980469 C 926.074219 655.929688 925.703125 654.898438 925.285156 653.882812 C 924.867188 652.871094 924.398438 651.882812 923.878906 650.914062 C 923.363281 649.945312 922.800781 649.007812 922.191406 648.097656 C 921.582031 647.183594 920.929688 646.304688 920.234375 645.457031 C 919.539062 644.609375 918.800781 643.796875 918.027344 643.023438 C 917.25 642.246094 916.441406 641.511719 915.59375 640.816406 C 914.746094 640.121094 913.863281 639.46875 912.953125 638.859375 C 912.039062 638.25 911.101562 637.6875 910.132812 637.167969 C 909.167969 636.652344 908.175781 636.183594 907.164062 635.765625 C 906.152344 635.34375 905.121094 634.976562 904.070312 634.65625 C 903.019531 634.339844 901.957031 634.074219 900.882812 633.859375 C 899.808594 633.644531 898.722656 633.484375 897.632812 633.375 C 896.542969 633.269531 895.445312 633.214844 894.351562 633.214844 L 872.632812 633.214844 C 871.507812 633.203125 870.390625 633.164062 869.269531 633.097656 C 868.148438 633.027344 867.03125 632.933594 865.917969 632.8125 C 864.800781 632.691406 863.691406 632.542969 862.582031 632.367188 C 861.476562 632.191406 860.371094 631.988281 859.273438 631.761719 C 858.175781 631.53125 857.085938 631.273438 856 630.992188 C 854.914062 630.710938 853.835938 630.402344 852.765625 630.066406 C 851.695312 629.730469 850.632812 629.371094 849.582031 628.984375 C 848.527344 628.597656 847.484375 628.183594 846.453125 627.746094 C 845.421875 627.308594 844.398438 626.847656 843.390625 626.359375 C 842.378906 625.871094 841.382812 625.359375 840.394531 624.824219 C 839.410156 624.285156 838.441406 623.726562 837.480469 623.144531 C 836.523438 622.558594 835.582031 621.953125 834.652344 621.324219 C 833.722656 620.695312 832.8125 620.042969 831.914062 619.367188 C 831.019531 618.695312 830.140625 618 829.277344 617.28125 C 828.414062 616.566406 827.570312 615.828125 826.742188 615.070312 C 825.917969 614.3125 825.109375 613.535156 824.320312 612.738281 C 823.53125 611.9375 822.761719 611.121094 822.011719 610.289062 C 821.265625 609.453125 820.535156 608.601562 819.828125 607.730469 C 819.121094 606.859375 818.4375 605.972656 817.773438 605.070312 C 817.109375 604.164062 816.464844 603.246094 815.847656 602.308594 C 815.226562 601.375 814.632812 600.425781 814.058594 599.460938 C 813.484375 598.496094 812.9375 597.519531 812.410156 596.527344 C 811.886719 595.539062 811.382812 594.535156 810.90625 593.519531 C 810.433594 592.503906 809.980469 591.476562 809.554688 590.441406 C 809.128906 589.402344 808.726562 588.355469 808.351562 587.296875 C 807.976562 586.242188 807.625 585.175781 807.304688 584.101562 C 806.980469 583.027344 806.683594 581.945312 806.414062 580.859375 C 806.140625 579.769531 805.898438 578.675781 805.679688 577.574219 C 805.464844 576.476562 805.273438 575.371094 805.109375 574.261719 C 804.945312 573.148438 804.808594 572.039062 804.699219 570.921875 C 804.589844 569.804688 804.507812 568.6875 804.453125 567.566406 C 804.398438 566.445312 804.371094 565.324219 804.371094 564.203125 C 804.371094 563.082031 804.398438 561.960938 804.453125 560.839844 C 804.507812 559.71875 804.589844 558.601562 804.699219 557.484375 C 804.808594 556.371094 804.945312 555.257812 805.109375 554.148438 C 805.273438 553.039062 805.464844 551.933594 805.679688 550.832031 C 805.898438 549.730469 806.140625 548.636719 806.414062 547.550781 C 806.683594 546.460938 806.980469 545.378906 807.304688 544.304688 C 807.625 543.230469 807.976562 542.164062 808.351562 541.109375 C 808.726562 540.050781 809.128906 539.003906 809.554688 537.96875 C 809.980469 536.929688 810.433594 535.902344 810.90625 534.886719 C 811.382812 533.871094 811.886719 532.871094 812.410156 531.878906 C 812.9375 530.886719 813.484375 529.910156 814.058594 528.945312 C 814.632812 527.980469 815.226562 527.03125 815.847656 526.097656 C 816.464844 525.160156 817.109375 524.242188 817.773438 523.339844 C 818.4375 522.433594 819.121094 521.546875 819.828125 520.675781 C 820.535156 519.804688 821.265625 518.953125 822.011719 518.117188 C 822.761719 517.285156 823.53125 516.46875 824.320312 515.671875 C 825.109375 514.875 825.917969 514.09375 826.742188 513.335938 C 827.570312 512.578125 828.414062 511.839844 829.277344 511.125 C 830.140625 510.40625 831.019531 509.710938 831.914062 509.039062 C 832.8125 508.363281 833.722656 507.710938 834.652344 507.082031 C 835.582031 506.453125 836.523438 505.847656 837.480469 505.265625 C 838.441406 504.679688 839.410156 504.121094 840.394531 503.585938 C 841.382812 503.046875 842.378906 502.535156 843.390625 502.046875 C 844.398438 501.5625 845.421875 501.097656 846.453125 500.660156 C 847.484375 500.222656 848.527344 499.8125 849.582031 499.425781 C 850.632812 499.035156 851.695312 498.675781 852.765625 498.339844 C 853.835938 498.003906 854.914062 497.695312 856 497.414062 C 857.085938 497.132812 858.175781 496.875 859.273438 496.644531 C 860.371094 496.417969 861.476562 496.214844 862.582031 496.039062 C 863.691406 495.863281 864.800781 495.714844 865.917969 495.59375 C 867.03125 495.472656 868.148438 495.378906 869.269531 495.3125 C 870.390625 495.242188 871.507812 495.203125 872.632812 495.191406 L 941.140625 495.191406 C 942.011719 495.191406 942.875 495.277344 943.730469 495.445312 C 944.585938 495.617188 945.414062 495.867188 946.21875 496.203125 C 947.027344 496.535156 947.789062 496.945312 948.515625 497.429688 C 949.238281 497.914062 949.910156 498.464844 950.527344 499.078125 C 951.144531 499.695312 951.691406 500.367188 952.175781 501.089844 C 952.660156 501.816406 953.070312 502.582031 953.402344 503.386719 C 953.738281 504.191406 953.988281 505.019531 954.160156 505.875 C 954.328125 506.730469 954.414062 507.59375 954.414062 508.464844 C 954.414062 509.335938 954.328125 510.199219 954.160156 511.054688 C 953.988281 511.910156 953.738281 512.742188 953.402344 513.546875 C 953.070312 514.351562 952.660156 515.117188 952.175781 515.839844 C 951.691406 516.566406 951.144531 517.234375 950.527344 517.851562 C 949.910156 518.46875 949.238281 519.019531 948.515625 519.503906 C 947.789062 519.988281 947.027344 520.394531 946.21875 520.730469 C 945.414062 521.0625 944.585938 521.316406 943.730469 521.484375 C 942.875 521.65625 942.011719 521.738281 941.140625 521.738281 L 872.632812 521.738281 C 871.253906 521.757812 869.878906 521.84375 868.507812 522 C 867.140625 522.152344 865.78125 522.371094 864.429688 522.65625 C 863.082031 522.941406 861.75 523.292969 860.4375 523.707031 C 859.121094 524.121094 857.832031 524.601562 856.5625 525.140625 C 855.292969 525.679688 854.054688 526.28125 852.847656 526.945312 C 851.636719 527.605469 850.460938 528.324219 849.324219 529.101562 C 848.183594 529.875 847.085938 530.707031 846.027344 531.589844 C 844.96875 532.472656 843.953125 533.402344 842.984375 534.382812 C 842.019531 535.367188 841.101562 536.390625 840.234375 537.464844 C 839.363281 538.535156 838.550781 539.644531 837.789062 540.796875 C 837.03125 541.945312 836.328125 543.128906 835.683594 544.347656 C 835.039062 545.566406 834.457031 546.8125 833.933594 548.089844 C 833.410156 549.363281 832.949219 550.664062 832.554688 551.980469 C 832.15625 553.300781 831.824219 554.640625 831.558594 555.992188 C 831.292969 557.34375 831.089844 558.707031 830.957031 560.078125 C 830.824219 561.449219 830.757812 562.824219 830.757812 564.203125 C 830.757812 565.582031 830.824219 566.957031 830.957031 568.328125 C 831.089844 569.699219 831.292969 571.0625 831.558594 572.414062 C 831.824219 573.769531 832.15625 575.105469 832.554688 576.425781 C 832.949219 577.746094 833.410156 579.042969 833.933594 580.316406 C 834.457031 581.59375 835.039062 582.839844 835.683594 584.058594 C 836.328125 585.277344 837.03125 586.460938 837.789062 587.613281 C 838.550781 588.761719 839.363281 589.871094 840.234375 590.945312 C 841.101562 592.015625 842.019531 593.039062 842.984375 594.023438 C 843.953125 595.003906 844.96875 595.9375 846.027344 596.820312 C 847.085938 597.703125 848.183594 598.53125 849.324219 599.308594 C 850.460938 600.082031 851.636719 600.800781 852.847656 601.460938 C 854.054688 602.125 855.292969 602.726562 856.5625 603.265625 C 857.832031 603.808594 859.121094 604.285156 860.4375 604.699219 C 861.75 605.117188 863.082031 605.464844 864.429688 605.75 C 865.78125 606.035156 867.140625 606.253906 868.507812 606.410156 C 869.878906 606.5625 871.253906 606.648438 872.632812 606.667969 L 894.351562 606.667969 C 896.316406 606.667969 898.277344 606.765625 900.234375 606.957031 C 902.191406 607.148438 904.132812 607.4375 906.0625 607.820312 C 907.992188 608.203125 909.894531 608.679688 911.777344 609.253906 C 913.65625 609.824219 915.507812 610.484375 917.324219 611.238281 C 919.140625 611.988281 920.914062 612.828125 922.648438 613.753906 C 924.382812 614.683594 926.066406 615.691406 927.703125 616.785156 C 929.335938 617.875 930.914062 619.046875 932.433594 620.292969 C 933.953125 621.539062 935.410156 622.859375 936.796875 624.25 C 938.1875 625.640625 939.507812 627.09375 940.753906 628.613281 C 942.003906 630.136719 943.171875 631.710938 944.265625 633.347656 C 945.355469 634.980469 946.367188 636.664062 947.292969 638.398438 C 948.21875 640.132812 949.058594 641.910156 949.8125 643.726562 C 950.5625 645.542969 951.226562 647.390625 951.796875 649.273438 C 952.367188 651.152344 952.84375 653.058594 953.226562 654.988281 C 953.613281 656.914062 953.898438 658.859375 954.09375 660.8125 C 954.285156 662.769531 954.382812 664.730469 954.382812 666.699219 C 954.382812 668.664062 954.285156 670.625 954.09375 672.582031 C 953.898438 674.539062 953.613281 676.480469 953.226562 678.410156 C 952.84375 680.339844 952.367188 682.242188 951.796875 684.125 C 951.226562 686.003906 950.5625 687.855469 949.8125 689.671875 C 949.058594 691.488281 948.21875 693.261719 947.292969 694.996094 C 946.367188 696.730469 945.355469 698.414062 944.265625 700.050781 C 943.171875 701.683594 942.003906 703.261719 940.753906 704.78125 C 939.507812 706.300781 938.1875 707.757812 936.796875 709.148438 C 935.410156 710.535156 933.953125 711.855469 932.433594 713.101562 C 930.914062 714.351562 929.335938 715.519531 927.703125 716.613281 C 926.066406 717.703125 924.382812 718.714844 922.648438 719.640625 C 920.914062 720.566406 919.140625 721.40625 917.324219 722.160156 C 915.507812 722.910156 913.65625 723.574219 911.777344 724.144531 C 909.894531 724.714844 907.992188 725.191406 906.0625 725.574219 C 904.132812 725.960938 902.191406 726.246094 900.234375 726.441406 C 898.277344 726.632812 896.316406 726.730469 894.351562 726.730469 Z M 894.351562 726.730469 " fill-opacity="1" fill-rule="nonzero"/><g fill="#1800ad" fill-opacity="1"><g transform="translate(623.9827, 656.273827)"><g><path d="M 9.875 0 L 1.21875 -80.75 L 17.015625 -80.75 L 21.53125 -29.796875 L 26.03125 -80.75 L 41.078125 -80.75 L 45.40625 -29.796875 L 49.71875 -80.75 L 65.703125 -80.75 L 56.875 0 L 37.5 0 L 33.46875 -38.921875 L 29.609375 0 Z M 9.875 0 "/></g></g></g></svg>